<?xml version="1.0" encoding="UTF-8" standalone="no"?>
<!DOCTYPE svg PUBLIC "-//W3C//DTD SVG 1.1//EN" "http://www.w3.org/Graphics/SVG/1.1/DTD/svg11.dtd">
<svg width="100%" height="100%" viewBox="0 0 1361 1527" version="1.1" xmlns="http://www.w3.org/2000/svg" xmlns:xlink="http://www.w3.org/1999/xlink" xml:space="preserve" xmlns:serif="http://www.serif.com/" style="fill-rule:evenodd;clip-rule:evenodd;stroke-linejoin:round;stroke-miterlimit:2;">
    <g transform="matrix(1,0,0,1,-4105.491667,-52704.298333)">
        <g transform="matrix(4.166667,0,0,4.166667,0,0)">
            <g transform="matrix(1,0,0,1,1045.1846,12739.6276)">
                <path d="M0,-90.596C0,-90.596 -10.316,-28.359 36.166,-2C36.166,-2 51.832,-7.694 55.337,-24.107C55.337,-24.107 14.624,-46.159 0,-90.596M210.404,-88.596C195.78,-44.159 155.067,-22.107 155.067,-22.107C158.573,-5.694 174.238,0 174.238,0C220.721,-26.359 210.404,-88.596 210.404,-88.596" style="fill:rgb(255,174,0);"/>
            </g>
        </g>
        <g transform="matrix(4.166667,0,0,4.166667,0,0)">
            <g transform="matrix(0,-359.848633,-359.848633,0,1148.635723,13015.454797)">
                <path d="M0.434,0.335C0.426,0.335 0.417,0.335 0.409,0.335C0.397,0.35 0.38,0.376 0.372,0.415C0.373,0.415 0.373,0.415 0.373,0.416L0.385,0.424C0.388,0.426 0.389,0.431 0.387,0.435C0.384,0.438 0.379,0.439 0.376,0.437L0.367,0.43C0.365,0.431 0.362,0.431 0.36,0.431C0.36,0.432 0.36,0.433 0.36,0.433L0.36,0.446C0.36,0.451 0.357,0.454 0.353,0.454C0.349,0.454 0.346,0.451 0.346,0.446L0.346,0.433C0.346,0.433 0.346,0.432 0.346,0.432C0.344,0.431 0.342,0.431 0.34,0.43C0.34,0.43 0.34,0.43 0.34,0.43L0.335,0.445C0.334,0.45 0.329,0.452 0.325,0.451C0.32,0.45 0.317,0.445 0.319,0.44L0.323,0.426C0.323,0.425 0.324,0.424 0.324,0.423C0.321,0.422 0.319,0.42 0.316,0.419L0.31,0.431C0.308,0.435 0.303,0.436 0.299,0.434C0.295,0.432 0.294,0.428 0.296,0.424L0.302,0.411C0.302,0.411 0.303,0.41 0.303,0.41C0.3,0.408 0.298,0.406 0.296,0.404C0.296,0.404 0.296,0.405 0.295,0.405L0.286,0.411C0.283,0.413 0.279,0.413 0.277,0.41C0.275,0.407 0.276,0.403 0.279,0.401L0.288,0.395C0.288,0.394 0.289,0.394 0.29,0.394C0.29,0.393 0.29,0.393 0.29,0.392C0.291,0.384 0.303,0.356 0.314,0.33C0.206,0.318 0.159,0.283 0.138,0.254C0.112,0.254 0.047,0.256 0.034,0.252C0.034,0.252 0.034,0.252 0.034,0.252C0.033,0.254 0.031,0.256 0.029,0.256L0.023,0.258C0.018,0.259 0.014,0.256 0.013,0.252L0.013,0.251C0.012,0.246 0.014,0.242 0.018,0.241L0.025,0.239L0.025,0.239C0.024,0.238 0.023,0.236 0.023,0.234C0.023,0.234 0.023,0.235 0.023,0.235L0.016,0.236C0.012,0.237 0.008,0.235 0.007,0.231L0.006,0.229C0.005,0.225 0.008,0.221 0.012,0.22L0.018,0.218C0.019,0.218 0.019,0.218 0.02,0.218C0.02,0.217 0.02,0.217 0.02,0.217L0.012,0.216C0.007,0.216 0.003,0.211 0.003,0.206L0.003,0.204C0.003,0.198 0.008,0.194 0.013,0.194L0.02,0.195C0.02,0.192 0.02,0.189 0.021,0.187L0.013,0.183C0.006,0.18 0.003,0.172 0.006,0.166L0.008,0.164C0.011,0.157 0.018,0.154 0.025,0.157L0.034,0.162C0.036,0.163 0.037,0.164 0.038,0.165C0.066,0.158 0.09,0.155 0.108,0.154C0.103,0.123 0.098,0.075 0.096,0.002C0.094,-0.075 0.1,-0.127 0.106,-0.161C0.087,-0.162 0.064,-0.164 0.035,-0.172C0.034,-0.17 0.033,-0.169 0.031,-0.169L0.022,-0.164C0.015,-0.161 0.008,-0.164 0.005,-0.17L0.004,-0.173C0.001,-0.179 0.003,-0.186 0.01,-0.189L0.018,-0.193C0.018,-0.196 0.017,-0.198 0.017,-0.201L0.011,-0.201C0.005,-0.2 0,-0.205 0,-0.21L0,-0.212C-0,-0.218 0.004,-0.223 0.009,-0.223L0.017,-0.223C0.017,-0.224 0.017,-0.224 0.017,-0.224C0.016,-0.224 0.016,-0.224 0.015,-0.224L0.009,-0.226C0.005,-0.227 0.002,-0.231 0.003,-0.236L0.004,-0.237C0.005,-0.241 0.009,-0.244 0.013,-0.243L0.02,-0.241C0.02,-0.241 0.02,-0.241 0.02,-0.241C0.02,-0.243 0.021,-0.244 0.022,-0.246L0.022,-0.246L0.015,-0.248C0.011,-0.249 0.009,-0.253 0.01,-0.257L0.01,-0.259C0.011,-0.263 0.015,-0.265 0.02,-0.264L0.026,-0.263C0.028,-0.262 0.03,-0.261 0.031,-0.259C0.031,-0.259 0.031,-0.259 0.031,-0.259C0.044,-0.262 0.113,-0.261 0.137,-0.26C0.157,-0.29 0.204,-0.325 0.311,-0.338C0.301,-0.361 0.291,-0.384 0.29,-0.392C0.29,-0.393 0.29,-0.393 0.29,-0.394C0.289,-0.394 0.288,-0.394 0.288,-0.395L0.279,-0.401C0.276,-0.403 0.275,-0.407 0.277,-0.41C0.279,-0.413 0.283,-0.413 0.286,-0.411L0.295,-0.405C0.295,-0.405 0.296,-0.404 0.296,-0.404C0.298,-0.406 0.3,-0.408 0.303,-0.41C0.302,-0.41 0.302,-0.411 0.302,-0.411L0.296,-0.424C0.294,-0.428 0.295,-0.432 0.299,-0.434C0.303,-0.436 0.308,-0.435 0.31,-0.431L0.316,-0.419C0.318,-0.42 0.321,-0.422 0.324,-0.423C0.323,-0.424 0.323,-0.425 0.323,-0.426L0.319,-0.44C0.317,-0.445 0.32,-0.45 0.325,-0.451C0.329,-0.452 0.334,-0.45 0.335,-0.445L0.339,-0.43C0.339,-0.43 0.339,-0.43 0.34,-0.43C0.342,-0.431 0.344,-0.431 0.346,-0.432C0.346,-0.432 0.345,-0.433 0.345,-0.433L0.345,-0.446C0.345,-0.451 0.349,-0.454 0.353,-0.454C0.357,-0.454 0.36,-0.451 0.36,-0.446L0.36,-0.433C0.363,-0.433 0.365,-0.432 0.367,-0.431L0.376,-0.437C0.379,-0.439 0.384,-0.438 0.387,-0.435C0.389,-0.431 0.388,-0.426 0.385,-0.424L0.373,-0.416C0.373,-0.415 0.373,-0.415 0.372,-0.415C0.379,-0.383 0.392,-0.359 0.403,-0.343C0.413,-0.343 0.423,-0.343 0.434,-0.343C0.74,-0.335 0.992,-0.283 1,-0.02C1,-0.013 1,-0.007 1,-0C1,0.273 0.745,0.327 0.434,0.335Z" style="fill:url(#_Linear1);fill-rule:nonzero;"/>
            </g>
        </g>
        <g transform="matrix(4.166667,0,0,4.166667,0,0)">
            <g opacity="0.1">
                <g transform="matrix(-1,0,0,1,1075.7412,12737.2834)">
                    <path d="M0,-20.451C-5.646,-20.451 -10.226,-15.872 -10.226,-10.225C-10.226,-4.577 -5.646,0 0,0C5.647,0 10.226,-4.577 10.226,-10.225C10.226,-15.872 5.647,-20.451 0,-20.451"/>
                </g>
            </g>
        </g>
        <g transform="matrix(4.166667,0,0,4.166667,0,0)">
            <g opacity="0.2">
                <g transform="matrix(-1,0,0,1,1075.6631,12734.1838)">
                    <path d="M0.002,-20.451C-5.645,-20.451 -10.225,-15.873 -10.225,-10.225C-10.225,-4.577 -5.645,0 0.002,0C5.648,0 10.227,-4.577 10.227,-10.225C10.227,-15.873 5.648,-20.451 0.002,-20.451" style="fill:white;"/>
                </g>
            </g>
        </g>
        <g transform="matrix(4.166667,0,0,4.166667,0,0)">
            <g transform="matrix(1,0,0,1,1213.5596,12721.3418)">
                <path d="M0,9.015C0,9.015 10.202,-2.056 24.595,1.977L23.726,4.191C23.726,4.191 16.449,2.214 14.473,4.586C14.473,4.586 20.087,4.824 22.38,6.406L21.037,8.383C21.037,8.383 8.937,3.162 1.265,11.071L0,9.015Z"/>
            </g>
        </g>
        <g transform="matrix(4.166667,0,0,4.166667,0,0)">
            <g transform="matrix(-1,0,0,1,1075.7021,12735.4213)">
                <path d="M0,-19.63C-5.42,-19.63 -9.814,-15.236 -9.814,-9.816C-9.814,-4.395 -5.42,0 0,0C5.421,0 9.814,-4.395 9.814,-9.816C9.814,-15.236 5.421,-19.63 0,-19.63"/>
            </g>
        </g>
        <g transform="matrix(4.166667,0,0,4.166667,0,0)">
            <g transform="matrix(0.96554,0.260254,0.260254,-0.96554,1071.568478,12725.570494)">
                <path d="M0.563,-0.177C0.563,-0.177 -0.222,3.171 2.105,5.233C4.433,7.293 1.192,7.815 0.563,7.481C-0.063,7.147 -4.797,5.185 -2.471,0.609C-0.145,-3.967 0.563,-1.326 0.563,-0.177" style="fill:white;"/>
            </g>
        </g>
        <g transform="matrix(4.166667,0,0,4.166667,0,0)">
            <g transform="matrix(1,0,0,1,1238.6621,12826.358)">
                <path d="M0,-64.928C-3.244,-36.199 -21.415,17.676 -88.295,16.391C-157.733,15.057 -171.837,-42.178 -175.427,-68.971C-176.122,-74.161 -176.02,-82.604 -165.856,-81.115C-140.987,-77.469 -74.256,-66.951 -10.347,-80.209C0.833,-82.529 0.961,-73.449 0,-64.928" style="fill:rgb(124,188,1);"/>
            </g>
        </g>
        <g transform="matrix(4.166667,0,0,4.166667,0,0)">
            <g transform="matrix(1,0,0,1,1228.4082,12834.2218)">
                <path d="M0,-81.825C0,-81.825 0.941,0.443 -78.587,-1.003C-158.116,-2.448 -155.566,-82.268 -155.566,-82.268C-155.566,-82.268 -74.644,-69.242 0,-81.825" style="fill:rgb(88,1,1);"/>
            </g>
        </g>
        <g transform="matrix(4.166667,0,0,4.166667,0,0)">
            <g transform="matrix(1,0,0,1,1085.3682,12813.4355)">
                <path d="M0,-59.86C24.472,-57.001 77.627,-52.524 129.943,-59.505C127.257,-40.256 115.524,0 64.372,-0.932C13.477,-1.86 2.387,-40.97 0,-59.86" style="fill:rgb(72,1,1);"/>
            </g>
        </g>
        <g transform="matrix(4.166667,0,0,4.166667,0,0)">
            <g transform="matrix(1,0,0,1,1199.6787,12798.7115)">
                <path d="M0,-42.511C-2.428,-27.527 -11.931,0.707 -49.081,0.029C-86.396,-0.653 -95.258,-28.64 -97.343,-43.218C-73.348,-41.052 -37.3,-39.221 0,-42.511" style="fill:rgb(63,0,0);"/>
            </g>
        </g>
        <g transform="matrix(4.166667,0,0,4.166667,0,0)">
            <g transform="matrix(1,0,0,1,1150.6777,12757.5975)">
                <path d="M0,28.229C-31.389,27.755 -36.906,7.61 -37.857,-0.469C-18.096,1.16 9.676,2.333 38.508,-0.031C37.322,8.338 31.229,28.698 0,28.229" style="fill:rgb(45,0,0);"/>
            </g>
        </g>
        <g transform="matrix(4.166667,0,0,4.166667,0,0)">
            <g transform="matrix(1,0,0,1,1150.1396,12759.8136)">
                <path d="M0,15.719C-17.702,15.456 -20.814,4.236 -21.352,-0.264C-10.206,0.643 5.457,1.296 21.718,-0.019C21.049,4.643 17.612,15.983 0,15.719" style="fill:rgb(22,0,0);"/>
            </g>
        </g>
        <g transform="matrix(4.166667,0,0,4.166667,0,0)">
            <g transform="matrix(1,0,0,1,1082.5156,12808.5859)">
                <path d="M0,-28.194C6.618,-28.175 11.969,-22.795 11.949,-16.176C11.945,-14.558 11.615,-13.018 11.03,-11.613C12.508,-12.14 14.094,-12.441 15.753,-12.436C23.463,-12.414 29.693,-6.147 29.672,1.562C29.67,2.276 29.597,2.971 29.492,3.655C31.531,2.499 33.883,1.834 36.395,1.841C43.939,1.863 50.054,7.872 50.289,15.356C52.479,13.06 55.563,11.626 58.986,11.636C64.628,11.653 69.335,15.569 70.594,20.822C71.883,15.577 76.611,11.686 82.253,11.702C84.59,11.709 86.761,12.395 88.601,13.556C89.725,8.087 94.572,3.981 100.371,3.997C103.385,4.006 106.129,5.136 108.23,6.98C107.757,5.686 107.488,4.295 107.492,2.837C107.511,-3.781 112.892,-9.131 119.509,-9.111C120.068,-9.11 120.614,-9.057 121.151,-8.982C121.121,-9.335 121.1,-9.69 121.101,-10.05C121.119,-16.669 126.5,-22.017 133.118,-21.999C135.136,-21.993 137.029,-21.482 138.692,-20.594C129.92,1.4 110.461,25.265 67.306,24.481C20.609,23.632 2.211,-4.237 -5.022,-27.102C-3.492,-27.805 -1.793,-28.2 0,-28.194M106.475,-43.124C104.181,-43.13 102.046,-43.792 100.227,-44.916C98.191,-41.172 94.219,-38.633 89.658,-38.647C85.467,-38.659 81.789,-40.826 79.656,-44.092C77.506,-40.838 73.815,-38.692 69.624,-38.704C64.491,-38.718 60.134,-41.964 58.439,-46.505C56.291,-44.505 53.416,-43.274 50.248,-43.284C46.057,-43.296 42.379,-45.462 40.246,-48.728C38.095,-45.474 34.405,-43.329 30.213,-43.34C24.242,-43.357 19.309,-47.741 18.415,-53.459C42.721,-51.225 79.906,-49.272 118.264,-52.794C117.184,-47.269 112.313,-43.107 106.475,-43.124" style="fill:white;"/>
            </g>
        </g>
        <g transform="matrix(4.166667,0,0,4.166667,0,0)">
            <g opacity="0.2">
                <g transform="matrix(1,0,0,1,1077.8672,12834.0078)">
                    <path d="M0,-52.319C-0.007,-52.457 -0.008,-52.53 -0.008,-52.53C-0.008,-52.53 22.909,-0.957 74.384,-2.956C114.2,-4.503 136.469,-33.349 143.06,-43.427C134.089,-22.255 114.635,0.211 72.456,-0.545C25.034,-1.392 6.911,-29.716 0,-52.319"/>
                </g>
            </g>
        </g>
        <g transform="matrix(4.166667,0,0,4.166667,0,0)">
            <g opacity="0.2">
                <g transform="matrix(1,0,0,1,1241.415,12822.2997)">
                    <path d="M0,-69.73C0.01,-69.466 0.02,-69.2 0.026,-68.924C-0.074,-68.935 -0.063,-69.23 0,-69.73M-13.115,-82.138C-13.128,-82.141 -13.136,-82.144 -13.138,-82.15C-13.138,-82.15 -13.136,-82.163 -13.126,-82.171C-13.139,-82.167 -12.975,-82.24 -12.692,-82.355C-12.41,-82.469 -12.011,-82.622 -11.553,-82.776C-10.634,-83.087 -9.482,-83.401 -8.497,-83.59C-7.998,-83.679 -7.529,-83.734 -7.064,-83.723C-6.831,-83.718 -6.598,-83.698 -6.354,-83.659C-6.233,-83.639 -6.109,-83.614 -5.981,-83.585C-5.918,-83.57 -5.854,-83.554 -5.787,-83.538C-5.722,-83.52 -5.655,-83.502 -5.587,-83.483C-4.545,-83.169 -2.982,-82.546 -1.288,-81.591C1.598,-78.227 0.281,-71.951 0,-69.73C-0.248,-76.353 -1.341,-79.171 -4.727,-80.963C-6.381,-81.811 -8.504,-82.186 -10.224,-82.251C-11.084,-82.285 -11.845,-82.237 -12.375,-82.188C-12.64,-82.165 -12.847,-82.143 -12.978,-82.136C-13.043,-82.132 -13.09,-82.132 -13.115,-82.138M-95.343,8.842C-14.808,10.887 -13.148,-69.836 -13.148,-69.836C-11.638,-60.447 -13.853,17.174 -95.174,13.943C-176.493,10.71 -168.219,-70.469 -168.219,-70.469C-168.219,-70.469 -161.094,7.172 -95.343,8.842M-167.606,-77.763C-165.6,-77.478 -95.425,-69.346 -14.555,-76.217C-14.555,-76.217 -11.013,-76.893 -13.024,-75.219C-13.024,-75.219 -75.619,-58.175 -170.422,-76.507C-170.422,-76.507 -169.612,-78.049 -167.606,-77.763M-175.106,-83.365C-167.837,-86.904 -162.876,-82.137 -162.876,-82.137C-162.876,-82.137 -176.677,-85.117 -182.11,-71.731C-182.11,-71.731 -182.375,-79.825 -175.106,-83.365"/>
                </g>
            </g>
        </g>
    </g>
    <defs>
        <linearGradient id="_Linear1" x1="0" y1="0" x2="1" y2="0" gradientUnits="userSpaceOnUse" gradientTransform="matrix(1,0,0,-1,0,0.000004)"><stop offset="0" style="stop-color:rgb(17,29,69);stop-opacity:1"/><stop offset="1" style="stop-color:rgb(41,112,255);stop-opacity:1"/></linearGradient>
    </defs>
</svg>
