<svg xmlns="http://www.w3.org/2000/svg" xmlns:xlink="http://www.w3.org/1999/xlink" viewBox="0 0 24 30" version="1.1" x="0px" y="0px"><title>emoticon_005-happy-smile-emotion-face</title><desc>Created with Sketch.</desc><g stroke="none" stroke-width="1" fill="none" fill-rule="evenodd"><g transform="translate(-237.000000, -45.000000)" fill="#000000"><g transform="translate(238.000000, 46.000000)"><path d="M22,11 C22,4.92486775 17.0751322,0 11,0 C4.92486775,0 0,4.92486775 0,11 C0,17.0751322 4.92486775,22 11,22 C17.0751322,22 22,17.0751322 22,11 Z M1,11 C1,5.4771525 5.4771525,1 11,1 C16.5228475,1 21,5.4771525 21,11 C21,16.5228475 16.5228475,21 11,21 C5.4771525,21 1,16.5228475 1,11 Z"/><path d="M4.66752595,16.1945203 C6.12929836,17.9539639 8.24104613,19 11,19 C13.7589539,19 15.8707016,17.9539639 17.332474,16.1945203 C18.35778,14.9604239 19,13.3645751 19,12.5 C19,12.2238576 18.7761424,12 18.5,12 C18.2238576,12 18,12.2238576 18,12.5 C18,13.1172602 17.4466722,14.4922214 16.563301,15.5554797 C15.2867997,17.0919242 13.4535675,18 11,18 C8.54643254,18 6.71320032,17.0919242 5.43669897,15.5554797 C4.55332783,14.4922214 4,13.1172602 4,12.5 C4,12.2238576 3.77614237,12 3.5,12 C3.22385763,12 3,12.2238576 3,12.5 C3,13.3645751 3.64221999,14.9604239 4.66752595,16.1945203 Z"/><path d="M6.5,10 C7.88071187,10 9,8.88071187 9,7.5 C9,7.22385763 8.77614237,7 8.5,7 C8.22385763,7 8,7.22385763 8,7.5 C8,8.32842712 7.32842712,9 6.5,9 C5.67157288,9 5,8.32842712 5,7.5 C5,7.22385763 4.77614237,7 4.5,7 C4.22385763,7 4,7.22385763 4,7.5 C4,8.88071187 5.11928813,10 6.5,10 Z"/><path d="M15.5,10 C16.8807119,10 18,8.88071187 18,7.5 C18,7.22385763 17.7761424,7 17.5,7 C17.2238576,7 17,7.22385763 17,7.5 C17,8.32842712 16.3284271,9 15.5,9 C14.6715729,9 14,8.32842712 14,7.5 C14,7.22385763 13.7761424,7 13.5,7 C13.2238576,7 13,7.22385763 13,7.5 C13,8.88071187 14.1192881,10 15.5,10 Z"/></g></g></g><text x="0" y="39" fill="#000000" font-size="5px" font-weight="bold" font-family="'Helvetica Neue', Helvetica, Arial-Unicode, Arial, Sans-serif">Created by Pham Thi Dieu Linh</text><text x="0" y="44" fill="#000000" font-size="5px" font-weight="bold" font-family="'Helvetica Neue', Helvetica, Arial-Unicode, Arial, Sans-serif">from the Noun Project</text></svg>