<svg xmlns="http://www.w3.org/2000/svg" xmlns:xlink="http://www.w3.org/1999/xlink" viewBox="0 0 24 30" version="1.1" x="0px" y="0px"><title>emoticon_029-happy-smile-emotion-face</title><desc>Created with Sketch.</desc><g stroke="none" stroke-width="1" fill="none" fill-rule="evenodd"><g transform="translate(-429.000000, -141.000000)" fill="#000000"><g transform="translate(430.000000, 142.000000)"><path d="M11,19 C7.3106125,19 3.93450569,16.0411448 3.99991428,12.5092581 C4.00502741,12.2331631 3.78535317,12.0051988 3.50925814,12.0000857 C3.2331631,11.9949726 3.00519885,12.2146468 3.00008572,12.4907419 C2.92364157,16.6185188 6.78197215,20 11,20 C15.2180279,20 19.0763584,16.6185188 18.9999143,12.4907419 C18.9948012,12.2146468 18.7668369,11.9949726 18.4907419,12.0000857 C18.2146468,12.0051988 17.9949726,12.2331631 18.0000857,12.5092581 C18.0654943,16.0411448 14.6893875,19 11,19 Z"/><path d="M11,11 C7.39624995,11 4.28439568,11.4213917 3.2353678,12.0757715 C3.00107288,12.2219239 2.9296192,12.5303373 3.07577152,12.7646322 C3.22192385,12.9989271 3.53033728,13.0703808 3.7646322,12.9242285 C4.5979391,12.4044146 7.58442261,12 11,12 C14.4155774,12 17.4020609,12.4044146 18.2353678,12.9242285 C18.4696627,13.0703808 18.7780761,12.9989271 18.9242285,12.7646322 C19.0703808,12.5303373 18.9989271,12.2219239 18.7646322,12.0757715 C17.7156043,11.4213917 14.60375,11 11,11 Z"/><path d="M22,11 C22,4.92486775 17.0751322,0 11,0 C4.92486775,0 0,4.92486775 0,11 C0,17.0751322 4.92486775,22 11,22 C17.0751322,22 22,17.0751322 22,11 Z M1,11 C1,5.4771525 5.4771525,1 11,1 C16.5228475,1 21,5.4771525 21,11 C21,16.5228475 16.5228475,21 11,21 C5.4771525,21 1,16.5228475 1,11 Z"/><path d="M10,7.5 C10,6.11928813 8.88071187,5 7.5,5 C6.11928813,5 5,6.11928813 5,7.5 C5,8.88071187 6.11928813,10 7.5,10 C8.88071187,10 10,8.88071187 10,7.5 Z M6,7.5 C6,6.67157288 6.67157288,6 7.5,6 C8.32842712,6 9,6.67157288 9,7.5 C9,8.32842712 8.32842712,9 7.5,9 C6.67157288,9 6,8.32842712 6,7.5 Z"/><circle cx="8" cy="8" r="1"/><path d="M13.6269715,7.85410428 C14.3289843,7.20952831 15.2498557,6.87081744 16.4475135,6.99723754 C16.7221303,7.02622501 16.9682501,6.82710317 16.9972375,6.55248646 C17.026225,6.27786975 16.8271032,6.03174993 16.5524865,6.00276246 C15.0564095,5.8448424 13.8557263,6.28647243 12.9506403,7.1175066 C12.4824847,7.54735893 12.1906826,7.98030934 12.0468662,8.28864768 C11.9301396,8.53890654 12.0383888,8.83640709 12.2886477,8.95313375 C12.5389065,9.06986041 12.8364071,8.96161118 12.9531338,8.71135232 C13.0458396,8.51259338 13.2667015,8.18489787 13.6269715,7.85410428 Z"/><path d="M13.2269437,8.77497356 C14.2333052,8.49423751 15.3016367,8.49423751 16.2892019,8.95339186 C16.5396033,9.06981241 16.8369713,8.96119947 16.9533919,8.71079807 C17.0698124,8.46039666 16.9611995,8.1630287 16.7107981,8.04660814 C15.4761411,7.47257201 14.1741022,7.47257201 12.9582415,7.81175025 C12.6524944,7.89704191 12.4236936,7.98407817 12.2892019,8.04660814 C12.0388005,8.1630287 11.9301876,8.46039666 12.0466081,8.71079807 C12.1630287,8.96119947 12.4603967,9.06981241 12.7107981,8.95339186 C12.7985286,8.91260278 12.9771353,8.84466047 13.2269437,8.77497356 Z"/></g></g></g><text x="0" y="39" fill="#000000" font-size="5px" font-weight="bold" font-family="'Helvetica Neue', Helvetica, Arial-Unicode, Arial, Sans-serif">Created by Pham Thi Dieu Linh</text><text x="0" y="44" fill="#000000" font-size="5px" font-weight="bold" font-family="'Helvetica Neue', Helvetica, Arial-Unicode, Arial, Sans-serif">from the Noun Project</text></svg>