<svg xmlns="http://www.w3.org/2000/svg" xmlns:xlink="http://www.w3.org/1999/xlink" viewBox="0 0 24 30" version="1.1" x="0px" y="0px"><title>emoticon_069-happy-smile-emotion-face</title><desc>Created with Sketch.</desc><g stroke="none" stroke-width="1" fill="none" fill-rule="evenodd"><g transform="translate(-429.000000, -333.000000)" fill="#000000"><g transform="translate(430.000000, 334.000000)"><path d="M22,11 C22,4.92486775 17.0751322,0 11,0 C4.92486775,0 0,4.92486775 0,11 C0,17.0751322 4.92486775,22 11,22 C17.0751322,22 22,17.0751322 22,11 Z M1,11 C1,5.4771525 5.4771525,1 11,1 C16.5228475,1 21,5.4771525 21,11 C21,16.5228475 16.5228475,21 11,21 C5.4771525,21 1,16.5228475 1,11 Z"/><path d="M10,7.5 C10,6.11928813 8.88071187,5 7.5,5 C6.11928813,5 5,6.11928813 5,7.5 C5,8.88071187 6.11928813,10 7.5,10 C8.88071187,10 10,8.88071187 10,7.5 Z M6,7.5 C6,6.67157288 6.67157288,6 7.5,6 C8.32842712,6 9,6.67157288 9,7.5 C9,8.32842712 8.32842712,9 7.5,9 C6.67157288,9 6,8.32842712 6,7.5 Z"/><circle cx="8" cy="8" r="1"/><path d="M13.6269715,7.85410428 C14.3289843,7.20952831 15.2498557,6.87081744 16.4475135,6.99723754 C16.7221303,7.02622501 16.9682501,6.82710317 16.9972375,6.55248646 C17.026225,6.27786975 16.8271032,6.03174993 16.5524865,6.00276246 C15.0564095,5.8448424 13.8557263,6.28647243 12.9506403,7.1175066 C12.4824847,7.54735893 12.1906826,7.98030934 12.0468662,8.28864768 C11.9301396,8.53890654 12.0383888,8.83640709 12.2886477,8.95313375 C12.5389065,9.06986041 12.8364071,8.96161118 12.9531338,8.71135232 C13.0458396,8.51259338 13.2667015,8.18489787 13.6269715,7.85410428 Z"/><path d="M13.2269437,8.77497356 C14.2333052,8.49423751 15.3016367,8.49423751 16.2892019,8.95339186 C16.5396033,9.06981241 16.8369713,8.96119947 16.9533919,8.71079807 C17.0698124,8.46039666 16.9611995,8.1630287 16.7107981,8.04660814 C15.4761411,7.47257201 14.1741022,7.47257201 12.9582415,7.81175025 C12.6524944,7.89704191 12.4236936,7.98407817 12.2892019,8.04660814 C12.0388005,8.1630287 11.9301876,8.46039666 12.0466081,8.71079807 C12.1630287,8.96119947 12.4603967,9.06981241 12.7107981,8.95339186 C12.7985286,8.91260278 12.9771353,8.84466047 13.2269437,8.77497356 Z"/><path d="M5.35050869,14.3604682 C5.61753682,14.8606704 5.95153986,15.3603563 6.35874799,15.828248 C7.5353683,17.1802124 9.07631957,18 11,18 C12.9236804,18 14.4646317,17.1802124 15.641252,15.828248 C16.0484601,15.3603563 16.3824632,14.8606704 16.6494913,14.3604682 C16.811294,14.0573763 16.9162846,13.8175118 16.9695986,13.6716892 C17.0644199,13.4123371 16.9310413,13.1252228 16.6716892,13.0304014 C16.4123371,12.9355801 16.1252228,13.0689587 16.0304014,13.3283108 C15.9923133,13.4324882 15.9058067,13.6301237 15.7673242,13.8895318 C15.5338769,14.3268296 15.2412307,14.7646437 14.8869226,15.171752 C13.8877823,16.3197876 12.6091899,17 11,17 C9.39081007,17 8.11221769,16.3197876 7.11307742,15.171752 C6.75876934,14.7646437 6.46612308,14.3268296 6.23267583,13.8895318 C6.09419331,13.6301237 6.00768672,13.4324882 5.96959857,13.3283108 C5.87477723,13.0689587 5.58766291,12.9355801 5.32831079,13.0304014 C5.06895866,13.1252228 4.9355801,13.4123371 5.03040143,13.6716892 C5.0837154,13.8175118 5.188706,14.0573763 5.35050869,14.3604682 Z"/><path d="M16.200673,13.5139004 C16.7940228,13.8793952 17.3813979,14 17.7999992,14 C18.0761416,14 18.2999992,13.7761424 18.2999992,13.5 C18.2999992,13.2238576 18.0761416,13 17.7999992,13 C17.7482987,13 17.6351896,12.9900466 17.4827242,12.9587411 C17.2232873,12.9054714 16.9641509,12.8096968 16.7251414,12.6624705 C16.5236462,12.5383524 16.3445362,12.3821694 16.1919214,12.1895213 C16.0204487,11.9730687 15.7059731,11.9366052 15.4895205,12.1080779 C15.2730679,12.2795505 15.2366044,12.5940261 15.4080771,12.8104787 C15.6351209,13.0970797 15.9024895,13.3302237 16.200673,13.5139004 Z"/><path d="M5.27485863,12.6624705 C5.03584914,12.8096968 4.77671267,12.9054714 4.51727584,12.9587411 C4.36481041,12.9900466 4.25170131,13 4.20000076,13 C3.92385839,13 3.70000076,13.2238576 3.70000076,13.5 C3.70000076,13.7761424 3.92385839,14 4.20000076,14 C4.61860205,14 5.20597724,13.8793952 5.79932698,13.5139004 C6.09751053,13.3302237 6.36487911,13.0970797 6.5919229,12.8104787 C6.76339557,12.5940261 6.72693211,12.2795505 6.51047948,12.1080779 C6.29402686,11.9366052 5.97955129,11.9730687 5.80807862,12.1895213 C5.65546376,12.3821694 5.47635377,12.5383524 5.27485863,12.6624705 Z"/></g></g></g><text x="0" y="39" fill="#000000" font-size="5px" font-weight="bold" font-family="'Helvetica Neue', Helvetica, Arial-Unicode, Arial, Sans-serif">Created by Pham Thi Dieu Linh</text><text x="0" y="44" fill="#000000" font-size="5px" font-weight="bold" font-family="'Helvetica Neue', Helvetica, Arial-Unicode, Arial, Sans-serif">from the Noun Project</text></svg>