<svg xmlns="http://www.w3.org/2000/svg" xmlns:xlink="http://www.w3.org/1999/xlink" viewBox="0 0 24 30" version="1.1" x="0px" y="0px"><title>emoticon_059-happy-smile-emotion-face</title><desc>Created with Sketch.</desc><g stroke="none" stroke-width="1" fill="none" fill-rule="evenodd"><g transform="translate(-429.000000, -285.000000)" fill="#000000"><g transform="translate(430.000000, 286.000000)"><polygon points="6 17.5 7 17.5 7 12.5 6 12.5"/><polygon points="9 19.5 10 19.5 10 13.5 9 13.5"/><polygon points="12 19.5 13 19.5 13 13.5 12 13.5"/><polygon points="15 17.5 16 17.5 16 12.5 15 12.5"/><path d="M16.9204179,13.3776678 C16.9788639,13.4833553 17,13.598016 17,13.649366 C17,16.424264 14.2242239,19 11,19 C7.77577606,19 5,16.424264 5,13.649366 C5,13.598016 5.0211361,13.4833553 5.07958213,13.3776678 C5.16995387,13.2142494 5.32294617,13.1220312 5.63624907,13.1220312 C5.66748401,13.1222648 5.66748401,13.1222648 5.6990725,13.1234265 C5.89260997,13.1319294 6.10525872,13.1780791 6.40703869,13.2737782 C6.53206963,13.3134274 7.1973678,13.5432274 7.41346272,13.6120927 C8.52292394,13.9656569 9.59384653,14.149366 11,14.149366 C12.4061535,14.149366 13.4770761,13.9656569 14.5865373,13.6120927 C14.8026322,13.5432274 15.4679304,13.3134274 15.5929613,13.2737782 C15.8947413,13.1780791 16.10739,13.1319294 16.3009275,13.1234265 C16.332516,13.1222648 16.332516,13.1222648 16.3637509,13.1220312 C16.6770538,13.1220312 16.8300461,13.2142494 16.9204179,13.3776678 Z M16.2570358,12.1243903 C15.9600111,12.1374397 15.6689246,12.2006122 15.290681,12.3205591 C15.1496672,12.3652767 14.4834725,12.5953864 14.2829018,12.6593044 C13.2671518,12.9830046 12.2973569,13.149366 11,13.149366 C9.70264307,13.149366 8.73284818,12.9830046 7.71709819,12.6593044 C7.51652751,12.5953864 6.85033281,12.3652767 6.70931904,12.3205591 C6.33107536,12.2006122 6.03998886,12.1374397 5.74296419,12.1243903 C5.68981597,12.1224338 5.68981597,12.1224338 5.63624907,12.1220312 C4.95533403,12.1220312 4.46918623,12.4150635 4.20448013,12.8937293 C4.04987947,13.1732924 4,13.4438823 4,13.649366 C4,16.9939509 7.23950879,20 11,20 C14.7604912,20 18,16.9939509 18,13.649366 C18,13.4438823 17.9501205,13.1732924 17.7955199,12.8937293 C17.5308138,12.4150635 17.044666,12.1220312 16.3637509,12.1220312 C16.310184,12.1224338 16.310184,12.1224338 16.2570358,12.1243903 Z"/><path d="M22,11 C22,4.92486775 17.0751322,0 11,0 C4.92486775,0 0,4.92486775 0,11 C0,17.0751322 4.92486775,22 11,22 C17.0751322,22 22,17.0751322 22,11 Z M1,11 C1,5.4771525 5.4771525,1 11,1 C16.5228475,1 21,5.4771525 21,11 C21,16.5228475 16.5228475,21 11,21 C5.4771525,21 1,16.5228475 1,11 Z"/><path d="M10,8.5 C10,7.11928813 8.88071187,6 7.5,6 C6.11928813,6 5,7.11928813 5,8.5 C5,9.88071187 6.11928813,11 7.5,11 C8.88071187,11 10,9.88071187 10,8.5 Z M6,8.5 C6,7.67157288 6.67157288,7 7.5,7 C8.32842712,7 9,7.67157288 9,8.5 C9,9.32842712 8.32842712,10 7.5,10 C6.67157288,10 6,9.32842712 6,8.5 Z"/><circle cx="8" cy="9" r="1"/><path d="M13.6269715,8.85410428 C14.3289843,8.20952831 15.2498557,7.87081744 16.4475135,7.99723754 C16.7221303,8.02622501 16.9682501,7.82710317 16.9972375,7.55248646 C17.026225,7.27786975 16.8271032,7.03174993 16.5524865,7.00276246 C15.0564095,6.8448424 13.8557263,7.28647243 12.9506403,8.1175066 C12.4824847,8.54735893 12.1906826,8.98030934 12.0468662,9.28864768 C11.9301396,9.53890654 12.0383888,9.83640709 12.2886477,9.95313375 C12.5389065,10.0698604 12.8364071,9.96161118 12.9531338,9.71135232 C13.0458396,9.51259338 13.2667015,9.18489787 13.6269715,8.85410428 Z"/><path d="M13.2269437,9.77497356 C14.2333052,9.49423751 15.3016367,9.49423751 16.2892019,9.95339186 C16.5396033,10.0698124 16.8369713,9.96119947 16.9533919,9.71079807 C17.0698124,9.46039666 16.9611995,9.1630287 16.7107981,9.04660814 C15.4761411,8.47257201 14.1741022,8.47257201 12.9582415,8.81175025 C12.6524944,8.89704191 12.4236936,8.98407817 12.2892019,9.04660814 C12.0388005,9.1630287 11.9301876,9.46039666 12.0466081,9.71079807 C12.1630287,9.96119947 12.4603967,10.0698124 12.7107981,9.95339186 C12.7985286,9.91260278 12.9771353,9.84466047 13.2269437,9.77497356 Z"/></g></g></g><text x="0" y="39" fill="#000000" font-size="5px" font-weight="bold" font-family="'Helvetica Neue', Helvetica, Arial-Unicode, Arial, Sans-serif">Created by Pham Thi Dieu Linh</text><text x="0" y="44" fill="#000000" font-size="5px" font-weight="bold" font-family="'Helvetica Neue', Helvetica, Arial-Unicode, Arial, Sans-serif">from the Noun Project</text></svg>