<svg xmlns="http://www.w3.org/2000/svg" xmlns:xlink="http://www.w3.org/1999/xlink" viewBox="0 0 24 30" version="1.1" x="0px" y="0px"><title>emoticon_124-bored-dull-face-emotion-emoji</title><desc>Created with Sketch.</desc><g stroke="none" stroke-width="1" fill="none" fill-rule="evenodd"><g transform="translate(-189.000000, -141.000000)" fill="#000000"><g transform="translate(190.000000, 142.000000)"><path d="M22,11 C22,4.92486775 17.0751322,0 11,0 C4.92486775,0 0,4.92486775 0,11 C0,17.0751322 4.92486775,22 11,22 C17.0751322,22 22,17.0751322 22,11 Z M1,11 C1,5.4771525 5.4771525,1 11,1 C16.5228475,1 21,5.4771525 21,11 C21,16.5228475 16.5228475,21 11,21 C5.4771525,21 1,16.5228475 1,11 Z"/><circle cx="7" cy="11" r="1"/><circle cx="15" cy="11" r="1"/><path d="M13.5,17 C13.7761424,17 14,16.7761424 14,16.5 C14,16.2238576 13.7761424,16 13.5,16 L8.5,16 C8.22385763,16 8,16.2238576 8,16.5 C8,16.7761424 8.22385763,17 8.5,17 L13.5,17 Z"/></g></g></g><text x="0" y="39" fill="#000000" font-size="5px" font-weight="bold" font-family="'Helvetica Neue', Helvetica, Arial-Unicode, Arial, Sans-serif">Created by Pham Thi Dieu Linh</text><text x="0" y="44" fill="#000000" font-size="5px" font-weight="bold" font-family="'Helvetica Neue', Helvetica, Arial-Unicode, Arial, Sans-serif">from the Noun Project</text></svg>