<svg xmlns="http://www.w3.org/2000/svg" xmlns:xlink="http://www.w3.org/1999/xlink" viewBox="0 0 24 30" version="1.1" x="0px" y="0px"><title>emoticon_016-happy-smile-emotion-face</title><desc>Created with Sketch.</desc><g stroke="none" stroke-width="1" fill="none" fill-rule="evenodd"><g transform="translate(-285.000000, -93.000000)" fill="#000000"><g transform="translate(286.000000, 94.000000)"><path d="M22,11 C22,4.92486775 17.0751322,0 11,0 C4.92486775,0 0,4.92486775 0,11 C0,17.0751322 4.92486775,22 11,22 C17.0751322,22 22,17.0751322 22,11 Z M1,11 C1,5.4771525 5.4771525,1 11,1 C16.5228475,1 21,5.4771525 21,11 C21,16.5228475 16.5228475,21 11,21 C5.4771525,21 1,16.5228475 1,11 Z"/><path d="M11,17 C9.55682577,17 8.32820282,16.2869688 7.96831013,15.3248269 C7.87156469,15.0661863 7.58346742,14.9349444 7.32482688,15.0316899 C7.06618634,15.1284353 6.93494443,15.4165326 7.03168987,15.6751731 C7.55022008,17.0614186 9.16748809,18 11,18 C12.8325119,18 14.4497799,17.0614186 14.9683101,15.6751731 C15.0650556,15.4165326 14.9338137,15.1284353 14.6751731,15.0316899 C14.4165326,14.9349444 14.1284353,15.0661863 14.0316899,15.3248269 C13.6717972,16.2869688 12.4431742,17 11,17 Z"/><path d="M7.85686633,8.10382647 C6.96107157,7.41410593 5.84248006,7 4.5,7 C4.22385763,7 4,7.22385763 4,7.5 C4,7.77614237 4.22385763,8 4.5,8 C5.61179236,8 6.51911637,8.33589407 7.24679574,8.89617353 C7.50029276,9.09135451 7.71275342,9.29999885 7.88494156,9.50713031 C7.98453497,9.62693489 8.04616276,9.71526064 8.07079194,9.75647698 C8.21244026,9.99352204 8.51943191,10.0708564 8.75647698,9.92920806 C8.99352204,9.78755974 9.07085638,9.48056809 8.92920806,9.24352302 C8.74985032,8.94337216 8.39882202,8.52110728 7.85686633,8.10382647 Z"/><path d="M14.1150584,9.50713031 C14.2872466,9.29999885 14.4997072,9.09135451 14.7532043,8.89617353 C15.4808836,8.33589407 16.3882076,8 17.5,8 C17.7761424,8 18,7.77614237 18,7.5 C18,7.22385763 17.7761424,7 17.5,7 C16.1575199,7 15.0389284,7.41410593 14.1431337,8.10382647 C13.601178,8.52110728 13.2501497,8.94337216 13.0707919,9.24352302 C12.9291436,9.48056809 13.006478,9.78755974 13.243523,9.92920806 C13.4805681,10.0708564 13.7875597,9.99352204 13.9292081,9.75647698 C13.9538372,9.71526064 14.015465,9.62693489 14.1150584,9.50713031 Z"/></g></g></g><text x="0" y="39" fill="#000000" font-size="5px" font-weight="bold" font-family="'Helvetica Neue', Helvetica, Arial-Unicode, Arial, Sans-serif">Created by Pham Thi Dieu Linh</text><text x="0" y="44" fill="#000000" font-size="5px" font-weight="bold" font-family="'Helvetica Neue', Helvetica, Arial-Unicode, Arial, Sans-serif">from the Noun Project</text></svg>